ply
format ascii 1.0
element vertex 389
property float x
property float y
property float z
end_header
0.871622 0.900338 0.878378
0.859797 0.891892 0.883446
0.866554 0.925676 0.880068
0.851351 0.900338 0.890203
0.876689 0.91723 0.873311
0.888514 0.905405 0.861486
0.851351 0.876689 0.881757
0.873311 0.939189 0.864865
0.871622 0.910473 0.878378
0.875 0.885135 0.869932
0.868243 0.883446 0.873311
0.849662 0.934122 0.880068
0.876689 0.880068 0.868243
0.878378 0.925676 0.866554
0.875 0.908784 0.873311
0.875 0.878378 0.864865
0.868243 0.908784 0.881757
0.871622 0.880068 0.868243
0.881757 0.885135 0.869932
0.85473 0.888514 0.885135
0.858108 0.876689 0.880068
0.869932 0.927365 0.876689
0.861486 0.918919 0.885135
0.847973 0.939189 0.878378
0.864865 0.878378 0.873311
0.858108 0.952703 0.859797
0.868243 0.934122 0.875
0.866554 0.891892 0.880068
0.885135 0.900338 0.866554
0.880068 0.929054 0.858108
0.859797 0.949324 0.866554
0.883446 0.891892 0.869932
0.886824 0.881757 0.859797
0.878378 0.89527 0.868243
0.893581 0.900338 0.858108
0.851351 0.908784 0.890203
0.858108 0.908784 0.888514
0.891892 0.900338 0.864865
0.851351 0.891892 0.888514
0.893581 0.891892 0.859797
0.876689 0.891892 0.871622
0.880068 0.908784 0.868243
0.866554 0.947635 0.858108
0.890203 0.886824 0.863176
0.890203 0.905405 0.858108
0.856419 0.922297 0.886824
0.869932 0.890203 0.876689
0.851351 0.927365 0.885135
0.871622 0.898649 0.876689
0.891892 0.891892 0.864865
0.885135 0.883446 0.864865
0.871622 0.91723 0.878378
0.880068 0.923986 0.863176
0.890203 0.885135 0.859797
0.871622 0.922297 0.878378
0.886824 0.891892 0.868243
0.881757 0.91723 0.851351
0.875 0.925676 0.873311
0.871622 0.9375 0.868243
0.868243 0.942568 0.866554
0.880068 0.925676 0.856419
0.868243 0.91723 0.881757
0.869932 0.876689 0.866554
0.875 0.934122 0.866554
0.881757 0.925676 0.851351
0.881757 0.91723 0.864865
0.875 0.900338 0.875
0.881757 0.908784 0.863176
0.880068 0.91723 0.868243
0.881757 0.91723 0.856419
0.868243 0.900338 0.880068
0.876689 0.934122 0.858108
0.883446 0.903716 0.859797
0.878378 0.900338 0.868243
0.885135 0.905405 0.858108
0.864865 0.947635 0.864865
0.864865 0.930743 0.878378
0.849662 0.954392 0.859797
0.849662 0.949324 0.871622
0.873311 0.939189 0.859797
0.873311 0.932432 0.869932
0.866554 0.940878 0.871622
0.826014 0.891892 0.881757
0.775338 0.91723 0.873311
0.826014 0.908784 0.890203
0.817568 0.891892 0.875
0.807432 0.890203 0.876689
0.768581 0.918919 0.859797
0.768581 0.925676 0.863176
0.822635 0.907095 0.883446
0.815878 0.900338 0.878378
0.805743 0.898649 0.876689
0.820946 0.898649 0.876689
0.817568 0.900338 0.876689
0.817568 0.876689 0.888514
0.809122 0.900338 0.878378
0.802365 0.903716 0.878378
0.817568 0.91723 0.881757
0.863176 0.907095 0.885135
0.829392 0.893581 0.886824
0.858108 0.915541 0.886824
0.817568 0.908784 0.880068
0.820946 0.913851 0.886824
0.800676 0.900338 0.875
0.851351 0.881757 0.883446
0.831081 0.888514 0.885135
0.814189 0.876689 0.883446
0.809122 0.893581 0.878378
0.826014 0.885135 0.883446
0.77027 0.918919 0.863176
0.777027 0.972973 0.871622
0.797297 0.972973 0.866554
0.775338 0.972973 0.866554
0.804054 0.956081 0.859797
0.795608 0.974662 0.853041
0.851351 0.942568 0.875
0.766892 0.951014 0.876689
0.77027 0.972973 0.863176
0.771959 0.971284 0.868243
0.8125 0.986486 0.844595
0.841216 0.944257 0.876689
0.8125 0.97973 0.842905
0.856419 0.947635 0.869932
0.775338 0.951014 0.888514
0.809122 0.940878 0.871622
0.8125 0.988176 0.844595
0.817568 0.940878 0.871622
0.807432 0.932432 0.878378
0.817568 0.883446 0.881757
0.800676 0.885135 0.875
0.820946 0.891892 0.876689
0.83277 0.952703 0.859797
0.834459 0.947635 0.871622
0.790541 0.935811 0.876689
0.765203 0.951014 0.864865
0.782095 0.951014 0.888514
0.798986 0.942568 0.873311
0.815878 0.976351 0.844595
0.826014 0.942568 0.873311
0.795608 0.967905 0.869932
0.804054 0.956081 0.861486
0.800676 0.967905 0.85473
0.79223 0.959459 0.873311
0.824324 0.978041 0.841216
0.851351 0.952703 0.866554
0.780405 0.95777 0.886824
0.826014 0.934122 0.880068
0.842905 0.952703 0.866554
0.771959 0.951014 0.885135
0.809122 0.951014 0.858108
0.783784 0.971284 0.876689
0.804054 0.951014 0.868243
0.800676 0.959459 0.864865
0.814189 0.971284 0.844595
0.859797 0.942568 0.873311
0.859797 0.935811 0.876689
0.775338 0.9375 0.881757
0.765203 0.945946 0.864865
0.766892 0.959459 0.863176
0.766892 0.966216 0.859797
0.77027 0.932432 0.858108
0.807432 0.949324 0.864865
0.773649 0.942568 0.883446
0.787162 0.97973 0.83277
0.777027 0.986486 0.814189
0.842905 0.885135 0.886824
0.826014 0.876689 0.888514
0.802365 0.984797 0.842905
0.798986 0.932432 0.878378
0.782095 0.944257 0.888514
0.778716 0.97973 0.826014
0.85473 0.893581 0.886824
0.780405 0.91723 0.876689
0.783784 0.972973 0.871622
0.768581 0.972973 0.859797
0.790541 0.972973 0.871622
0.778716 0.989865 0.810811
0.814189 0.886824 0.876689
0.768581 0.967905 0.864865
0.83277 0.984797 0.831081
0.788851 0.986486 0.817568
0.77027 0.966216 0.871622
0.817568 0.991554 0.839527
0.822635 0.9375 0.876689
0.768581 0.961149 0.875
0.788851 0.983108 0.822635
0.783784 0.91723 0.878378
0.787162 0.875 0.871622
0.804054 0.945946 0.868243
0.795608 0.972973 0.869932
0.820946 0.989865 0.834459
0.787162 0.976351 0.836149
0.783784 0.981419 0.831081
0.863176 0.883446 0.876689
0.778716 0.905405 0.868243
0.809122 0.876689 0.880068
0.787162 0.947635 0.886824
0.827703 0.947635 0.869932
0.79223 0.967905 0.875
0.817568 0.976351 0.842905
0.826014 0.986486 0.83277
0.790541 0.881757 0.875
0.783784 0.978041 0.839527
0.790541 0.944257 0.881757
0.793919 0.952703 0.876689
0.773649 0.969595 0.873311
0.831081 0.981419 0.836149
0.856419 0.900338 0.886824
0.8125 0.89527 0.878378
0.809122 0.976351 0.847973
0.809122 0.986486 0.842905
0.817568 0.930743 0.878378
0.826014 1 0.831081
0.831081 0.991554 0.827703
0.831081 0.97973 0.834459
0.766892 0.942568 0.876689
0.788851 0.981419 0.829392
0.802365 0.961149 0.858108
0.831081 0.97973 0.836149
0.782095 0.908784 0.875
0.83277 0.944257 0.875
0.798986 0.951014 0.873311
0.766892 0.959459 0.859797
0.790541 0.974662 0.866554
0.826014 0.993243 0.831081
0.822635 0.994932 0.836149
0.800676 0.91723 0.881757
0.824324 0.983108 0.837838
0.815878 0.935811 0.875
0.782095 0.989865 0.8125
0.824324 0.900338 0.881757
0.800676 0.881757 0.880068
0.807432 0.881757 0.878378
0.777027 0.910473 0.871622
0.822635 0.945946 0.868243
0.79223 0.930743 0.878378
0.782095 0.988176 0.815878
0.800676 0.978041 0.851351
0.810811 0.989865 0.841216
0.800676 0.974662 0.853041
0.777027 0.944257 0.886824
0.797297 0.95777 0.871622
0.797297 0.967905 0.866554
0.834459 0.934122 0.880068
0.783784 0.932432 0.875
0.817568 0.984797 0.839527
0.79223 0.925676 0.880068
0.817568 0.949324 0.858108
0.778716 0.981419 0.827703
0.851351 0.91723 0.890203
0.783784 0.900338 0.864865
0.836149 0.986486 0.826014
0.861486 0.898649 0.885135
0.793919 0.881757 0.880068
0.834459 0.993243 0.824324
0.782095 0.984797 0.822635
0.778716 0.983108 0.822635
0.829392 0.998311 0.827703
0.844595 0.954392 0.858108
0.77027 0.934122 0.859797
0.83277 1 0.824324
0.834459 0.900338 0.890203
0.827703 0.900338 0.888514
0.800676 0.876689 0.883446
0.804054 0.967905 0.851351
0.822635 0.998311 0.836149
0.820946 0.998311 0.836149
0.859797 0.883446 0.880068
0.83277 0.883446 0.886824
0.809122 0.908784 0.880068
0.820946 0.988176 0.834459
0.83277 0.876689 0.886824
0.765203 0.942568 0.859797
0.863176 0.945946 0.868243
0.79223 0.940878 0.875
0.775338 0.966216 0.880068
0.800676 0.935811 0.876689
0.787162 0.89527 0.859797
0.785473 0.876689 0.853041
0.819257 0.880068 0.886824
0.79223 0.91723 0.881757
0.836149 0.876689 0.885135
0.842905 0.876689 0.883446
0.785473 0.880068 0.851351
0.778716 0.978041 0.831081
0.777027 0.932432 0.871622
0.783784 0.959459 0.883446
0.783784 0.966216 0.880068
0.834459 0.951014 0.866554
0.817568 0.945946 0.868243
0.841216 0.923986 0.888514
0.834459 0.883446 0.885135
0.807432 0.969595 0.847973
0.824324 0.951014 0.859797
0.788851 0.964527 0.878378
0.842905 0.934122 0.880068
0.771959 0.925676 0.866554
0.863176 0.883446 0.878378
0.785473 0.912162 0.878378
0.807432 0.945946 0.868243
0.800676 0.925676 0.880068
0.79223 0.876689 0.881757
0.771959 0.91723 0.866554
0.787162 0.944257 0.886824
0.783784 0.939189 0.885135
0.783784 0.925676 0.878378
0.777027 0.903716 0.861486
0.77027 0.913851 0.859797
0.826014 0.91723 0.890203
0.79223 0.893581 0.859797
0.863176 0.876689 0.876689
0.785473 0.902027 0.871622
0.79223 0.902027 0.873311
0.834459 0.891892 0.888514
0.790541 0.896959 0.866554
0.797297 0.896959 0.868243
0.773649 0.908784 0.858108
0.787162 0.89527 0.861486
0.809122 0.984797 0.846284
0.782095 0.97973 0.834459
0.834459 0.923986 0.888514
0.834459 0.91723 0.891892
0.797297 0.890203 0.85473
0.802365 0.891892 0.873311
0.842905 0.891892 0.890203
0.788851 0.959459 0.880068
0.842905 0.949324 0.871622
0.842905 0.908784 0.891892
0.775338 0.908784 0.864865
0.788851 0.905405 0.876689
0.798986 0.893581 0.866554
0.859797 0.925676 0.883446
0.842905 0.900338 0.891892
0.782095 0.898649 0.859797
0.777027 0.903716 0.858108
0.795608 0.890203 0.846284
0.797297 0.890203 0.851351
0.800676 0.908784 0.880068
0.841216 0.881757 0.883446
0.815878 0.947635 0.863176
0.768581 0.927365 0.858108
0.858108 0.932432 0.880068
0.817568 0.925676 0.880068
0.824324 0.925676 0.881757
0.79223 0.883446 0.849662
0.798986 0.886824 0.868243
0.79223 0.89527 0.863176
0.790541 0.951014 0.880068
0.777027 0.95777 0.886824
0.773649 0.959459 0.883446
0.834459 0.939189 0.878378
0.827703 0.922297 0.888514
0.820946 0.918919 0.885135
0.795608 0.886824 0.851351
0.853041 0.9375 0.876689
0.782095 0.935811 0.881757
0.768581 0.942568 0.881757
0.809122 0.925676 0.880068
0.826014 0.881757 0.888514
0.79223 0.908784 0.880068
0.788851 0.876689 0.875
0.809122 0.91723 0.880068
0.782095 0.974662 0.866554
0.783784 0.876689 0.851351
0.77027 0.930743 0.861486
0.849662 0.923986 0.888514
0.785473 0.952703 0.885135
0.768581 0.951014 0.881757
0.842905 0.940878 0.878378
0.83277 0.929054 0.881757
0.768581 0.95777 0.880068
0.826014 0.949324 0.864865
0.842905 0.91723 0.891892
0.773649 0.907095 0.849662
0.787162 0.880068 0.853041
0.790541 0.881757 0.853041
0.797297 0.885135 0.853041
0.787162 0.878378 0.85473
0.829392 0.939189 0.878378
0.809122 0.935811 0.875
0.775338 0.925676 0.871622
0.842905 0.929054 0.883446
0.773649 0.932432 0.864865
0.834459 0.908784 0.891892
0.780405 0.925676 0.876689
0.795608 0.976351 0.849662
0.802365 0.983108 0.847973
0.849662 0.885135 0.886824
0.809122 0.885135 0.876689
